<?xml version="1.0" standalone="no"?>
<svg xmlns:xlink="http://www.w3.org/1999/xlink" id="wave" style="transform:rotate(0deg); transition: 0.3s" viewBox="0 0 1440 190" version="1.1" xmlns="http://www.w3.org/2000/svg"><defs><linearGradient id="sw-gradient-0" x1="0" x2="0" y1="1" y2="0"><stop stop-color="rgba(1, 27, 54, 1)" offset="0%"/><stop stop-color="rgba(1, 27, 54, 1)" offset="100%"/></linearGradient></defs><path style="transform:translate(0, 0px); opacity:1" fill="url(#sw-gradient-0)" d="M0,19L17.1,41.2C34.3,63,69,108,103,104.5C137.1,101,171,51,206,47.5C240,44,274,89,309,101.3C342.9,114,377,95,411,82.3C445.7,70,480,63,514,79.2C548.6,95,583,133,617,136.2C651.4,139,686,108,720,79.2C754.3,51,789,25,823,38C857.1,51,891,101,926,129.8C960,158,994,165,1029,152C1062.9,139,1097,108,1131,95C1165.7,82,1200,89,1234,76C1268.6,63,1303,32,1337,41.2C1371.4,51,1406,101,1440,104.5C1474.3,108,1509,63,1543,57C1577.1,51,1611,82,1646,101.3C1680,120,1714,127,1749,120.3C1782.9,114,1817,95,1851,91.8C1885.7,89,1920,101,1954,114C1988.6,127,2023,139,2057,133C2091.4,127,2126,101,2160,104.5C2194.3,108,2229,139,2263,129.8C2297.1,120,2331,70,2366,57C2400,44,2434,70,2451,82.3L2468.6,95L2468.6,190L2451.4,190C2434.3,190,2400,190,2366,190C2331.4,190,2297,190,2263,190C2228.6,190,2194,190,2160,190C2125.7,190,2091,190,2057,190C2022.9,190,1989,190,1954,190C1920,190,1886,190,1851,190C1817.1,190,1783,190,1749,190C1714.3,190,1680,190,1646,190C1611.4,190,1577,190,1543,190C1508.6,190,1474,190,1440,190C1405.7,190,1371,190,1337,190C1302.9,190,1269,190,1234,190C1200,190,1166,190,1131,190C1097.1,190,1063,190,1029,190C994.3,190,960,190,926,190C891.4,190,857,190,823,190C788.6,190,754,190,720,190C685.7,190,651,190,617,190C582.9,190,549,190,514,190C480,190,446,190,411,190C377.1,190,343,190,309,190C274.3,190,240,190,206,190C171.4,190,137,190,103,190C68.6,190,34,190,17,190L0,190Z"/></svg>